<svg xmlns="http://www.w3.org/2000/svg" viewBox="0 0 600 300">
  <defs>
    <linearGradient id="g1" x1="0" y1="0" x2="1" y2="1">
      <stop offset="0%" stop-color="#064e3b"/>
      <stop offset="50%" stop-color="#065f46"/>
      <stop offset="100%" stop-color="#047857"/>
    </linearGradient>
  </defs>
  <rect width="600" height="300" fill="url(#g1)"/>
  <!-- Abstract shopping elements -->
  <rect x="50" y="60" width="120" height="160" rx="12" fill="white" opacity="0.08"/>
  <rect x="60" y="70" width="100" height="80" rx="8" fill="white" opacity="0.06"/>
  <rect x="60" y="165" width="60" height="8" rx="4" fill="white" opacity="0.1"/>
  <rect x="60" y="180" width="80" height="6" rx="3" fill="white" opacity="0.06"/>
  <rect x="60" y="195" width="40" height="12" rx="6" fill="#34d399" opacity="0.3"/>

  <rect x="200" y="40" width="120" height="160" rx="12" fill="white" opacity="0.08"/>
  <rect x="210" y="50" width="100" height="80" rx="8" fill="white" opacity="0.06"/>
  <rect x="210" y="145" width="60" height="8" rx="4" fill="white" opacity="0.1"/>
  <rect x="210" y="160" width="80" height="6" rx="3" fill="white" opacity="0.06"/>
  <rect x="210" y="175" width="40" height="12" rx="6" fill="#34d399" opacity="0.3"/>

  <!-- Cart icon -->
  <g transform="translate(420, 80)" stroke="white" stroke-width="2" fill="none" opacity="0.2">
    <path d="M0 0 L10 0 L25 60 L70 60"/>
    <circle cx="30" cy="75" r="6"/>
    <circle cx="62" cy="75" r="6"/>
    <path d="M14 15 L75 15 L65 50 L22 50Z"/>
  </g>
  <!-- Decorative circles -->
  <circle cx="500" cy="200" r="40" fill="#6ee7b7" opacity="0.08"/>
  <circle cx="460" cy="240" r="25" fill="#34d399" opacity="0.06"/>
  <!-- Floating dots -->
  <circle cx="380" cy="50" r="3" fill="#6ee7b7" opacity="0.3"/>
  <circle cx="450" cy="260" r="4" fill="#a7f3d0" opacity="0.2"/>
  <circle cx="550" cy="100" r="2" fill="#6ee7b7" opacity="0.25"/>
</svg>
