<svg xmlns="http://www.w3.org/2000/svg" viewBox="0 0 600 300">
  <defs>
    <linearGradient id="g6" x1="0" y1="0" x2="1" y2="1">
      <stop offset="0%" stop-color="#052e16"/>
      <stop offset="100%" stop-color="#14532d"/>
    </linearGradient>
  </defs>
  <rect width="600" height="300" fill="url(#g6)"/>
  <!-- Blog layout -->
  <g opacity="0.9">
    <!-- Header -->
    <rect x="40" y="25" width="520" height="40" rx="8" fill="white" opacity="0.04"/>
    <rect x="55" y="38" width="60" height="12" rx="4" fill="#34d399" opacity="0.25"/>
    <circle cx="530" cy="45" r="10" fill="white" opacity="0.06"/>

    <!-- Featured post -->
    <rect x="40" y="80" width="330" height="190" rx="12" fill="white" opacity="0.05"/>
    <rect x="55" y="95" width="300" height="100" rx="8" fill="white" opacity="0.04"/>
    <rect x="55" y="208" width="180" height="10" rx="5" fill="white" opacity="0.12"/>
    <rect x="55" y="225" width="260" height="7" rx="3.5" fill="white" opacity="0.06"/>
    <rect x="55" y="240" width="200" height="7" rx="3.5" fill="white" opacity="0.04"/>

    <!-- Sidebar posts -->
    <rect x="390" y="80" width="170" height="55" rx="8" fill="white" opacity="0.05"/>
    <rect x="405" y="92" width="40" height="30" rx="4" fill="white" opacity="0.04"/>
    <rect x="455" y="95" width="80" height="6" rx="3" fill="white" opacity="0.1"/>
    <rect x="455" y="107" width="60" height="5" rx="2.5" fill="white" opacity="0.05"/>

    <rect x="390" y="145" width="170" height="55" rx="8" fill="white" opacity="0.05"/>
    <rect x="405" y="157" width="40" height="30" rx="4" fill="white" opacity="0.04"/>
    <rect x="455" y="160" width="90" height="6" rx="3" fill="white" opacity="0.1"/>
    <rect x="455" y="172" width="50" height="5" rx="2.5" fill="white" opacity="0.05"/>

    <rect x="390" y="210" width="170" height="55" rx="8" fill="white" opacity="0.05"/>
    <rect x="405" y="222" width="40" height="30" rx="4" fill="white" opacity="0.04"/>
    <rect x="455" y="225" width="70" height="6" rx="3" fill="white" opacity="0.1"/>
    <rect x="455" y="237" width="80" height="5" rx="2.5" fill="white" opacity="0.05"/>
  </g>
  <!-- Leaf decoration -->
  <g transform="translate(520,20) scale(0.4)" fill="#6ee7b7" opacity="0.15">
    <path d="M30 0C30 0 0 20 0 40C0 55 13 65 30 65C47 65 60 55 60 40C60 20 30 0 30 0Z"/>
  </g>
</svg>
