<svg xmlns="http://www.w3.org/2000/svg" viewBox="0 0 600 300">
  <defs>
    <linearGradient id="g3" x1="0" y1="0" x2="1" y2="1">
      <stop offset="0%" stop-color="#042f2e"/>
      <stop offset="100%" stop-color="#0f766e"/>
    </linearGradient>
  </defs>
  <rect width="600" height="300" fill="url(#g3)"/>
  <!-- Kanban columns -->
  <g opacity="0.9">
    <!-- Column 1 -->
    <rect x="30" y="30" width="160" height="240" rx="12" fill="white" opacity="0.05"/>
    <rect x="45" y="45" width="60" height="8" rx="4" fill="white" opacity="0.15"/>
    <rect x="45" y="70" width="130" height="45" rx="8" fill="white" opacity="0.07"/>
    <rect x="45" y="125" width="130" height="45" rx="8" fill="white" opacity="0.07"/>
    <rect x="45" y="180" width="130" height="45" rx="8" fill="white" opacity="0.07"/>

    <!-- Column 2 -->
    <rect x="210" y="30" width="160" height="240" rx="12" fill="white" opacity="0.05"/>
    <rect x="225" y="45" width="80" height="8" rx="4" fill="#34d399" opacity="0.3"/>
    <rect x="225" y="70" width="130" height="45" rx="8" fill="#059669" opacity="0.12"/>
    <rect x="225" y="125" width="130" height="45" rx="8" fill="white" opacity="0.07"/>

    <!-- Column 3 -->
    <rect x="390" y="30" width="160" height="240" rx="12" fill="white" opacity="0.05"/>
    <rect x="405" y="45" width="50" height="8" rx="4" fill="white" opacity="0.15"/>
    <rect x="405" y="70" width="130" height="45" rx="8" fill="white" opacity="0.07"/>
  </g>
  <!-- Checkmarks -->
  <g stroke="#34d399" stroke-width="2" fill="none" opacity="0.4">
    <path d="M415 88 L422 96 L435 80"/>
  </g>
  <!-- Decorative dots -->
  <circle cx="560" cy="260" r="3" fill="#6ee7b7" opacity="0.3"/>
  <circle cx="575" cy="40" r="2" fill="#34d399" opacity="0.2"/>
</svg>
